<?xml version="1.0" encoding="UTF-8" standalone="no"?>
<svg
   xmlns:dc="http://purl.org/dc/elements/1.1/"
   xmlns:cc="http://creativecommons.org/ns#"
   xmlns:rdf="http://www.w3.org/1999/02/22-rdf-syntax-ns#"
   xmlns:svg="http://www.w3.org/2000/svg"
   xmlns="http://www.w3.org/2000/svg"
   xmlns:sodipodi="http://sodipodi.sourceforge.net/DTD/sodipodi-0.dtd"
   xmlns:inkscape="http://www.inkscape.org/namespaces/inkscape"
   version="1.1"
   x="0px"
   y="0px"
   viewBox="0 0 95.943794 78.70945"
   enable-background="new 0 0 100 100"
   xml:space="preserve"
   id="svg2"
   inkscape:version="0.91 r13725"
   sodipodi:docname="noun_35238_cc.svg"
   width="95.943794"
   height="78.70945"><metadata
     id="metadata26"><rdf:RDF><cc:Work
         rdf:about=""><dc:format>image/svg+xml</dc:format><dc:type
           rdf:resource="http://purl.org/dc/dcmitype/StillImage" /><dc:title></dc:title></cc:Work></rdf:RDF></metadata><defs
     id="defs24" /><sodipodi:namedview
     pagecolor="#ffffff"
     bordercolor="#666666"
     borderopacity="1"
     objecttolerance="10"
     gridtolerance="10"
     guidetolerance="10"
     inkscape:pageopacity="0"
     inkscape:pageshadow="2"
     inkscape:window-width="640"
     inkscape:window-height="480"
     id="namedview22"
     showgrid="false"
     fit-margin-top="0"
     fit-margin-left="0"
     fit-margin-right="0"
     fit-margin-bottom="0"
     inkscape:zoom="1.888"
     inkscape:cx="48.062308"
     inkscape:cy="23.422422"
     inkscape:window-x="0"
     inkscape:window-y="0"
     inkscape:window-maximized="0"
     inkscape:current-layer="svg2" /><path
     d="m 16.937308,65.183026 c 0.43,-0.055 0.829,-0.565 1.097,-0.921 l 6.66,-8.871 0.097,-0.204 5.627,18.087 0.41,0.291 c 0.095,0.085 6.509,4.836 15.715,5.137 0.3,0.01 0.601,0.007 0.902,0.007 0.259,0 0.515,-0.003 0.773,-0.013 4.662,-0.129 9.958,-1.475 15.447,-5.085 l 0.484,-0.311 5.82,-18.789 c 0.088,-0.213 0.163,-0.449 0.236,-0.677 0.032,-0.105 0.065,-0.216 0.098,-0.322 0,0.322 0.107,0.645 0.323,0.915 l 7.291,9.538 c 0.26,0.354 0.657,1.163 1.087,1.218 l 1.215,-0.355 15.133,-12.758 c 0.656,-0.539 0.786,-1.791 0.291,-2.479 l -5.769,-8.023 c -0.226,-0.312 -0.559,-0.539 -0.943,-0.624 l -20.109,-4.725 c -3.687,-7.498 -11.185,-12.805 -19.939,-13.385 -0.278,-0.022 -0.558,-0.032 -0.848,-0.043 -0.249,-0.012 -0.494,-0.012 -0.742,-0.012 -0.299,0 -0.6,0.012 -0.89,0.023 -0.581,0.021 -1.149,0.064 -1.718,0.117 -8.466,0.924 -15.61,6.264 -19.089,13.653 l -18.5850001,4.372 c -0.386,0.085 -0.719,0.312 -0.946,0.624 l -5.75599995,8.023 c -0.506,0.688 -0.376,1.642 0.279,2.18 l 15.13500005,13.056 1.214,0.356 z m -0.451,-4.506 -12.6860001,-10.429 4.533,-6.307 15.8980001,-3.738 3.684,-0.871 1.74,-0.408 -0.246,0.999 -1.988,0.848 -3.694,1.567 -5.94,2.527 c -0.462,0.19 -0.807,0.59 -0.936,1.083 -0.117,0.484 -0.011,0.998 0.301,1.396 l 4.845,6.124 -5.511,7.209 z m 4.512,-13.674 2.341,-0.999 c -0.021,0.248 -0.021,0.505 -0.021,0.752 0,1.192 0.087,2.363 0.258,3.511 l -2.578,-3.264 z m 40.409,24.233 c -13.919,8.8 -25.875,1.634 -28.228,0.032 l -2.139,-6.906 -3.426,-11.022 -0.257,-0.824 c -0.537,-1.828 -0.816,-3.763 -0.816,-5.76 0,-0.731 0.043,-1.449 0.107,-2.159 l 4.758,-2.019 c 0.464,-0.193 0.818,-0.602 0.935,-1.097 l 1.075,-4.338 c 0.129,-0.548 -0.021,-1.128 -0.419,-1.526 -0.396,-0.397 -0.966,-0.569 -1.514,-0.43 l -1.664,0.387 c 3.695,-5.757 10.15,-9.571 17.475,-9.571 7.166,0 13.493,3.652 17.22,9.195 l -0.053,-0.011 c -0.547,-0.128 -1.118,0.032 -1.515,0.43 -0.398,0.398 -0.549,0.978 -0.418,1.526 l 1.073,4.338 c 0.116,0.495 0.471,0.903 0.935,1.097 l 3.33,1.408 c 0.117,0.9 0.18,1.824 0.18,2.771 0,1.794 -0.223,3.523 -0.653,5.177 l -0.053,0.194 c -0.118,0.472 -0.269,0.925 -0.429,1.375 l -3.374,10.86 -2.13,6.873 z m 9.183,-18.72 0.056,-0.176 -0.032,-0.01 c 0.429,-1.782 0.657,-3.651 0.657,-5.574 0,-0.441 -0.014,-0.892 -0.046,-1.332 l 3.729,1.579 -4.317,5.448 c -0.011,0.019 -0.033,0.042 -0.047,0.065 z m 8.866,8.161 -5.512,-7.207 4.845,-6.124 c 0.313,-0.397 0.417,-0.911 0.302,-1.396 -0.131,-0.493 -0.474,-0.893 -0.936,-1.083 l -7.422,-3.16 -3.791,-1.611 -0.411,-0.172 -0.246,-0.999 0.246,0.053 3.73,0.883 17.346,4.081 4.533,6.307 -12.684,10.428 z"
     id="path4"
     inkscape:connector-curvature="0" /><path
     d="m 55.736308,20.057026 c 0.249,0.14 0.521,0.206 0.785,0.206 0.565,0 1.114,-0.298 1.408,-0.827 l 7.305,-13.0920002 c 0.434,-0.776 0.155,-1.757 -0.623,-2.19 -0.771,-0.434 -1.756,-0.155 -2.189,0.622 l -7.305,13.0910002 c -0.435,0.775 -0.156,1.756 0.619,2.19 z"
     id="path6"
     inkscape:connector-curvature="0" /><path
     d="m 36.767308,19.435026 c 0.295,0.529 0.842,0.827 1.407,0.827 0.267,0 0.536,-0.066 0.784,-0.206 0.778,-0.434 1.056,-1.415 0.622,-2.191 l -7.304,-13.0910002 c -0.432,-0.777 -1.42,-1.054 -2.191,-0.622 -0.777,0.433 -1.056,1.415 -0.622,2.19 l 7.304,13.0930002 z"
     id="path8"
     inkscape:connector-curvature="0" /><path
     d="m 41.570308,50.756026 c -5.105,1.481 -7.836,-1.595 -7.958,-1.733 -0.384,-0.449 -1.056,-0.508 -1.511,-0.128 -0.454,0.38 -0.513,1.06 -0.132,1.511 0.122,0.146 2.498,2.906 6.888,2.906 0.999,0 2.105,-0.143 3.311,-0.495 0.571,-0.166 0.898,-0.761 0.732,-1.33 -0.165,-0.574 -0.755,-0.9 -1.33,-0.731 z"
     id="path10"
     inkscape:connector-curvature="0" /><path
     d="m 60.459308,49.026026 c -0.026,0.033 -2.79,3.227 -7.954,1.729 -0.578,-0.169 -1.166,0.161 -1.331,0.73 -0.165,0.569 0.162,1.164 0.731,1.33 1.206,0.353 2.312,0.495 3.313,0.495 4.387,0 6.769,-2.76 6.888,-2.906 0.381,-0.451 0.32,-1.131 -0.133,-1.511 -0.453,-0.38 -1.133,-0.32 -1.514,0.133 z"
     id="path12"
     inkscape:connector-curvature="0" /><path
     d="m 47.149308,18.212026 c 0.286,0.002 0.555,-0.072 0.787,-0.201 0.495,-0.274 0.83,-0.801 0.83,-1.406 l 0.038,-14.9920002 c 0.003,-0.88899995 -0.716,-1.61199995 -1.607,-1.612999950724 -0.885,-0.0049999993 -1.61,0.716000000724 -1.613,1.604999950724 l -0.039,14.9900002 c -0.003,0.891 0.717,1.613 1.604,1.617 z"
     id="path14"
     inkscape:connector-curvature="0" /><path
     d="m 47.291308,64.077026 c -0.595,0 -1.075,-0.479 -1.075,-1.074 l 0,-9.112 c 0,-0.597 0.48,-1.078 1.075,-1.078 0.592,0 1.072,0.481 1.072,1.078 l 0,9.112 c 10e-4,0.596 -0.479,1.074 -1.072,1.074 z"
     id="path16"
     inkscape:connector-curvature="0" /></svg>