<?xml version="1.0" encoding="UTF-8" standalone="no"?>
<svg
   xmlns:dc="http://purl.org/dc/elements/1.1/"
   xmlns:cc="http://creativecommons.org/ns#"
   xmlns:rdf="http://www.w3.org/1999/02/22-rdf-syntax-ns#"
   xmlns:svg="http://www.w3.org/2000/svg"
   xmlns="http://www.w3.org/2000/svg"
   xmlns:sodipodi="http://sodipodi.sourceforge.net/DTD/sodipodi-0.dtd"
   xmlns:inkscape="http://www.inkscape.org/namespaces/inkscape"
   version="1.1"
   x="0px"
   y="0px"
   viewBox="0 0 48 48"
   id="svg2"
   inkscape:version="0.91 r13725"
   sodipodi:docname="noun_455207_cc.svg"
   width="48"
   height="48">
  <metadata
     id="metadata20">
    <rdf:RDF>
      <cc:Work
         rdf:about="">
        <dc:format>image/svg+xml</dc:format>
        <dc:type
           rdf:resource="http://purl.org/dc/dcmitype/StillImage" />
        <dc:title></dc:title>
      </cc:Work>
    </rdf:RDF>
  </metadata>
  <defs
     id="defs18" />
  <sodipodi:namedview
     pagecolor="#ffffff"
     bordercolor="#666666"
     borderopacity="1"
     objecttolerance="10"
     gridtolerance="10"
     guidetolerance="10"
     inkscape:pageopacity="0"
     inkscape:pageshadow="2"
     inkscape:window-width="890"
     inkscape:window-height="628"
     id="namedview16"
     showgrid="false"
     fit-margin-top="0"
     fit-margin-left="0"
     fit-margin-right="0"
     fit-margin-bottom="0"
     inkscape:zoom="3.9333333"
     inkscape:cx="24"
     inkscape:cy="18.000043"
     inkscape:window-x="0"
     inkscape:window-y="0"
     inkscape:window-maximized="0"
     inkscape:current-layer="svg2" />
  <g
     transform="translate(0,-1004.3622)"
     id="g4">
    <g
       transform="translate(-0.1874839,-0.08735)"
       id="g6">
      <g
         transform="translate(0.18336736,-0.87410704)"
         id="g8">
        <path
           style="color:#000000;text-indent:0;text-decoration:none;text-decoration-line:none;text-transform:none;direction:ltr;block-progression:tb;baseline-shift:baseline;display:inline;overflow:visible;visibility:visible;fill:#000000;fill-opacity:1;fill-rule:nonzero;stroke:none;enable-background:accumulate"
           d="M 24,0 C 10.751464,0 -3.7e-5,10.7508 0,24 1.9e-5,37.2491 10.751505,48 24,48 37.248495,48 47.999981,37.2491 48,24 48.000038,10.7508 37.248536,0 24,0 Z m 0,1.0078125 C 36.70433,1.0078125 46.992224,11.2952 46.992188,24 46.99217,36.7048 36.704291,46.992188 24,46.992188 11.295709,46.992188 1.0078305,36.7048 1.0078125,24 1.0077755,11.2952 11.29567,1.0078125 24,1.0078125 Z m -0.158203,11.9941405 -0.529297,0.03516 -0.498047,0.0332 0.06445,0.996094 0.5,-0.0332 0.507813,-0.03125 0.435547,0.02149 0.5,0.01953 0.04297,-1 -0.5,-0.01758 -0.46875,-0.02344 -0.02734,0 -0.02734,0 z m 2.126953,0.154297 -0.255859,0.970703 0.484375,0.126953 0.865234,0.228516 0.04687,0.01953 0.46875,0.179688 0.355469,-0.9375 -0.466797,-0.175782 -0.07031,-0.02734 -0.02539,-0.0098 -0.02539,-0.01172 -0.894531,-0.236328 -0.482422,-0.126953 z m -4.253906,0.07422 -0.478516,0.134765 -0.830078,0.240235 -0.02539,0.0098 -0.02539,0.01367 -0.126953,0.05274 -0.462891,0.189453 0.380859,0.925781 0.460938,-0.191406 0.101562,-0.04102 0.804688,-0.232422 0.480469,-0.138672 -0.279297,-0.96289 z m 7.18164,0.9375 -0.453125,0.890625 0.445313,0.226562 0.125,0.06445 0.673828,0.441407 0.419922,0.273437 0.546875,-0.837891 -0.419922,-0.273437 -0.697266,-0.455078 -0.02148,-0.01563 -0.02539,-0.01172 -0.148437,-0.07617 -0.445313,-0.226562 z m -10.080078,0.15039 -0.439453,0.236329 -0.09375,0.04883 -0.02344,0.01758 -0.02148,0.01563 -0.736328,0.505859 -0.412109,0.283203 0.566406,0.824219 0.412109,-0.283203 0.716797,-0.492188 0.06641,-0.03711 0.439454,-0.238281 -0.47461,-0.88086 z m 12.675782,1.634766 -0.714844,0.701172 0.351562,0.355469 0.392578,0.40039 0.351563,0.357422 0.712891,-0.701172 -0.351563,-0.357422 -0.392578,-0.398437 -0.349609,-0.357422 z m -15.214844,0.224609 -0.341797,0.365235 -0.341797,0.365234 -0.341797,0.365235 0.730469,0.683593 0.341797,-0.365234 0.341797,-0.365235 0.341796,-0.365234 -0.730468,-0.683594 z m 7.703125,1.324219 C 20.377191,17.501953 17.5,20.4055 17.5,24 c 0,3.5236 2.764516,6.378287 6.265625,6.492188 0.07889,0 0.155135,0.0098 0.234375,0.0098 3.59301,-0.0106 6.5,-2.916153 6.5,-6.501953 0,-3.5909 -2.917429,-6.498047 -6.519531,-6.498047 z m 4.724609,0.689453 c 1.634515,1.3389 2.69464,3.355035 2.75586,5.615235 0.02564,0.061 0.03901,0.127359 0.03906,0.193359 0,2.3378 -1.079174,4.429641 -2.765625,5.806641 5.491339,-1.5679 9.435453,-5.305688 9.951172,-5.804688 -0.516634,-0.4999 -4.473868,-4.247647 -9.980469,-5.810547 z m -9.478516,0.01953 c -5.470816,1.5745 -9.3976206,5.293215 -9.9121089,5.791015 0.514618,0.498 4.4430379,4.221122 9.9160159,5.794922 C 17.561166,28.419175 16.5,26.3307 16.5,24 c 0,-2.3279 1.059683,-4.412162 2.726562,-5.789062 z M 24,19.501953 c 0.264156,-0.0037 0.507812,0.2358 0.507812,0.5 0,0.2642 -0.243656,0.5 -0.507812,0.5 -1.586555,0 -2.970259,1.06115 -3.380859,2.59375 -0.05883,0.2623 -0.35754,0.443047 -0.617188,0.373047 -0.259651,-0.0699 -0.428506,-0.376413 -0.347656,-0.632812 C 20.180783,20.870937 21.965666,19.501953 24,19.501953 Z m -8.193359,10.306641 -0.748047,0.662109 0.330078,0.375 0.390625,0.439453 0.332031,0.375 0.748047,-0.662109 -0.330078,-0.375 -0.390625,-0.441406 -0.332031,-0.373047 z m 16.195312,0.259765 -0.34375,0.363282 -0.685547,0.728515 -0.34375,0.363282 0.726563,0.685546 0.34375,-0.363281 0.685547,-0.726562 0.34375,-0.363282 -0.726563,-0.6875 z m -14.505859,1.552735 -0.583985,0.8125 0.40625,0.291015 0.734375,0.529297 0.02148,0.01758 0.02344,0.01367 0.08398,0.04687 0.435547,0.246094 0.490234,-0.871094 -0.435547,-0.246093 -0.05273,-0.0293 -0.716797,-0.517579 -0.40625,-0.292968 z m 12.417968,0.435547 -0.416015,0.279297 -0.384766,0.257812 -0.425781,0.222656 -0.443359,0.232422 0.46289,0.886719 0.44336,-0.232422 0.449218,-0.234375 0.02344,-0.01172 0.02344,-0.01563 0.410157,-0.27539 0.414062,-0.279297 -0.556641,-0.830078 z m -9.96289,1.074218 -0.392578,0.917969 0.458984,0.195313 0.195313,0.08398 0.02539,0.0098 0.02539,0.0098 0.755859,0.226563 0.478516,0.146484 0.289062,-0.957031 -0.478515,-0.146484 -0.736328,-0.222657 -0.16211,-0.06836 -0.458984,-0.195313 z m 7.480469,0.283203 -0.482422,0.132813 -0.902344,0.242187 -0.0098,0 -0.496093,0.07422 0.152343,0.988281 0.494141,-0.07422 0.04102,-0.0098 0.02734,0 0.02734,-0.0098 0.923828,-0.248046 0.484375,-0.128907 -0.259765,-0.966797 z m -4.767579,0.498047 -0.07227,1 0.5,0.03516 0.703125,0.05078 0.02734,0 0.0293,0 0.292969,-0.01172 0.5,-0.01953 -0.03906,-1 -0.5,0.01953 -0.275391,0.01172 -0.667969,-0.04883 -0.498047,-0.03711 z"
           transform="translate(0.00411654,1005.3237)"
           display="inline"
           overflow="visible"
           visibility="visible"
           id="path10"
           inkscape:connector-curvature="0" />
      </g>
    </g>
  </g>
</svg>
